<svg width="current" height="current" viewBox="0 0 24 24" fill="current" xmlns="http://www.w3.org/2000/svg">
<path d="M12.7 17.7V19H11.3V17.7H5.7C5.504 17.7 5.33833 17.6372 5.203 17.5115C5.06767 17.3858 5 17.232 5 17.05V6.65C5 6.468 5.06767 6.31417 5.203 6.1885C5.33833 6.06283 5.504 6 5.7 6H9.9C10.3107 6 10.698 6.078 11.062 6.234C11.426 6.39 11.7387 6.60667 12 6.884C12.2613 6.60667 12.574 6.39 12.938 6.234C13.302 6.078 13.6893 6 14.1 6H18.3C18.496 6 18.6617 6.06283 18.797 6.1885C18.9323 6.31417 19 6.468 19 6.65V17.05C19 17.232 18.9323 17.3858 18.797 17.5115C18.6617 17.6372 18.496 17.7 18.3 17.7H12.7ZM17.6 16.4V7.3H14.1C13.848 7.3 13.6147 7.3585 13.4 7.4755C13.1853 7.5925 13.015 7.75067 12.889 7.95C12.763 8.14933 12.7 8.366 12.7 8.6V16.4H17.6ZM11.3 16.4V8.6C11.3 8.366 11.237 8.14933 11.111 7.95C10.985 7.75067 10.8147 7.5925 10.6 7.4755C10.3853 7.3585 10.152 7.3 9.9 7.3H6.4V16.4H11.3Z" fill="current"/>
</svg>
