<svg width="current" height="current" viewBox="0 0 16 16" fill="none" xmlns="http://www.w3.org/2000/svg">
<path d="M13.6585 11H14.991V12.3333H1.66602V11H2.99852V6.33333C2.99852 5.36444 3.24281 4.46667 3.73139 3.64C4.20221 2.84 4.83737 2.20444 5.63687 1.73333C6.46302 1.24444 7.36023 1 8.32852 1C9.2968 1 10.194 1.24444 11.0202 1.73333C11.8197 2.20444 12.4548 2.84 12.9256 3.64C13.4142 4.46667 13.6585 5.36444 13.6585 6.33333V11ZM12.326 11V6.33333C12.326 5.61333 12.1439 4.94222 11.7797 4.32C11.4244 3.71556 10.9447 3.23556 10.3406 2.88C9.71876 2.51556 9.04807 2.33333 8.32852 2.33333C7.60897 2.33333 6.93827 2.51556 6.31644 2.88C5.71237 3.23556 5.23267 3.71556 4.87734 4.32C4.51312 4.94222 4.33102 5.61333 4.33102 6.33333V11H12.326ZM6.32977 13.6667H10.3273V15H6.32977V13.6667Z" fill="#4B5563"/>
</svg>
