<svg width="current" height="current" viewBox="0 0 24 24" fill="current" xmlns="http://www.w3.org/2000/svg">
<path d="M12.0004 18.6665C11.0943 18.6665 10.2282 18.4932 9.40202 18.1465C8.6114 17.8087 7.90739 17.3309 7.29 16.7132C6.67261 16.0954 6.19513 15.3909 5.85757 14.5998C5.51112 13.7732 5.33789 12.9065 5.33789 11.9998C5.33789 11.0932 5.51112 10.2265 5.85757 9.39984C6.19513 8.60873 6.67261 7.90428 7.29 7.2865C7.90739 6.66873 8.6114 6.19095 9.40202 5.85317C10.2282 5.50651 11.0943 5.33317 12.0004 5.33317C12.9065 5.33317 13.7726 5.50651 14.5988 5.85317C15.3894 6.19095 16.0934 6.66873 16.7108 7.2865C17.3282 7.90428 17.8056 8.60873 18.1432 9.39984C18.4897 10.2265 18.6629 11.0932 18.6629 11.9998C18.6629 12.9065 18.4897 13.7732 18.1432 14.5998C17.8056 15.3909 17.3282 16.0954 16.7108 16.7132C16.0934 17.3309 15.3894 17.8087 14.5988 18.1465C13.7726 18.4932 12.9065 18.6665 12.0004 18.6665ZM12.0004 17.3332C12.9687 17.3332 13.8659 17.0887 14.692 16.5998C15.4915 16.1287 16.1267 15.4932 16.5975 14.6932C17.0861 13.8665 17.3304 12.9687 17.3304 11.9998C17.3304 11.0309 17.0861 10.1332 16.5975 9.3065C16.1267 8.5065 15.4915 7.87095 14.692 7.39984C13.8659 6.91095 12.9687 6.6665 12.0004 6.6665C11.0321 6.6665 10.1349 6.91095 9.30874 7.39984C8.50924 7.87095 7.87408 8.5065 7.40327 9.3065C6.91468 10.1332 6.67039 11.0309 6.67039 11.9998C6.67039 12.9687 6.91468 13.8665 7.40327 14.6932C7.87408 15.4932 8.50924 16.1287 9.30874 16.5998C10.1349 17.0887 11.0321 17.3332 12.0004 17.3332ZM12.6666 11.9998H15.3316V13.3332H11.3341V8.6665H12.6666V11.9998Z" fill="#4B5563"/>
</svg>
