<svg width="current" height="current" viewBox="0 0 24 24" fill="current" xmlns="http://www.w3.org/2000/svg">
<path d="M14.2826 6.46491C14.6297 6.10342 15.096 5.89292 15.5867 5.87609C16.0775 5.85927 16.556 6.03738 16.9253 6.37431L17.0181 6.46491L17.4739 6.93943C17.821 7.3008 18.0231 7.78602 18.0393 8.29675C18.0554 8.80747 17.8844 9.30549 17.561 9.68986L17.4739 9.7865L10.2453 17.3123C10.1431 17.4187 10.0193 17.4998 9.883 17.5499L9.77856 17.5814L6.90697 18.2714C6.80636 18.2957 6.70159 18.2945 6.6015 18.268C6.50141 18.2414 6.40892 18.1901 6.33182 18.1185C6.25472 18.047 6.19528 17.9572 6.15849 17.8567C6.1217 17.7562 6.10864 17.648 6.12041 17.5411L6.13331 17.4653L6.79544 14.4753C6.82815 14.3286 6.89204 14.1914 6.9824 14.0739L7.05397 13.99L14.2826 6.46491ZM13.8268 8.83748L8.03072 14.8712L7.62068 16.7223L9.39882 16.2948L15.1948 10.261L13.8268 8.83748ZM16.1065 7.41394C15.9955 7.29838 15.8478 7.22896 15.6911 7.2187C15.5344 7.20845 15.3795 7.25806 15.2555 7.35823L15.1948 7.41394L14.7384 7.88845L16.1065 9.31199L16.5623 8.83748C16.6733 8.72191 16.74 8.56814 16.7498 8.40503C16.7597 8.24192 16.712 8.08068 16.6158 7.95154L16.5623 7.88845L16.1065 7.41394Z" fill="#4B5563"/>
</svg>
